<mxfile host="Electron" modified="2024-06-18T05:38:11.984Z" agent="Mozilla/5.0 (Windows NT 10.0; Win64; x64) AppleWebKit/537.36 (KHTML, like Gecko) draw.io/23.1.5 Chrome/120.0.6099.109 Electron/28.1.0 Safari/537.36" etag="JPAmbToY8e_VPeQ1D-1N" version="23.1.5" type="device">
  <diagram name="Page-1" id="sDbqkbVfEmbyg8Rh3x8V">
    <mxGraphModel dx="703" dy="578" grid="0" gridSize="10" guides="1" tooltips="1" connect="1" arrows="1" fold="1" page="1" pageScale="1" pageWidth="1654" pageHeight="1169" math="0" shadow="0">
      <root>
        <mxCell id="0" />
        <mxCell id="1" parent="0" />
        <mxCell id="xIY02DsBYMmazBNHOMGh-10" style="edgeStyle=orthogonalEdgeStyle;rounded=0;orthogonalLoop=1;jettySize=auto;html=1;entryX=0;entryY=0.5;entryDx=0;entryDy=0;" edge="1" parent="1" source="xIY02DsBYMmazBNHOMGh-1" target="xIY02DsBYMmazBNHOMGh-6">
          <mxGeometry relative="1" as="geometry">
            <Array as="points">
              <mxPoint x="540" y="400" />
              <mxPoint x="540" y="400" />
            </Array>
          </mxGeometry>
        </mxCell>
        <mxCell id="xIY02DsBYMmazBNHOMGh-1" value="ESP32-C3FH4" style="rounded=1;whiteSpace=wrap;html=1;" vertex="1" parent="1">
          <mxGeometry x="350" y="260" width="150" height="200" as="geometry" />
        </mxCell>
        <mxCell id="xIY02DsBYMmazBNHOMGh-8" value="" style="edgeStyle=orthogonalEdgeStyle;rounded=0;orthogonalLoop=1;jettySize=auto;html=1;" edge="1" parent="1" source="xIY02DsBYMmazBNHOMGh-2" target="xIY02DsBYMmazBNHOMGh-1">
          <mxGeometry relative="1" as="geometry" />
        </mxCell>
        <mxCell id="xIY02DsBYMmazBNHOMGh-2" value="RTC" style="rounded=0;whiteSpace=wrap;html=1;fillColor=#fff2cc;strokeColor=#d6b656;" vertex="1" parent="1">
          <mxGeometry x="120" y="330" width="120" height="60" as="geometry" />
        </mxCell>
        <mxCell id="xIY02DsBYMmazBNHOMGh-7" value="" style="edgeStyle=orthogonalEdgeStyle;rounded=0;orthogonalLoop=1;jettySize=auto;html=1;" edge="1" parent="1" source="xIY02DsBYMmazBNHOMGh-3" target="xIY02DsBYMmazBNHOMGh-1">
          <mxGeometry relative="1" as="geometry" />
        </mxCell>
        <mxCell id="xIY02DsBYMmazBNHOMGh-3" value="Flow meter" style="rounded=1;whiteSpace=wrap;html=1;fillColor=#fff2cc;strokeColor=#d6b656;" vertex="1" parent="1">
          <mxGeometry x="365" y="100" width="120" height="60" as="geometry" />
        </mxCell>
        <mxCell id="xIY02DsBYMmazBNHOMGh-14" value="" style="edgeStyle=orthogonalEdgeStyle;rounded=0;orthogonalLoop=1;jettySize=auto;html=1;" edge="1" parent="1" source="xIY02DsBYMmazBNHOMGh-4" target="xIY02DsBYMmazBNHOMGh-12">
          <mxGeometry relative="1" as="geometry" />
        </mxCell>
        <mxCell id="xIY02DsBYMmazBNHOMGh-4" value="Battery" style="rounded=1;whiteSpace=wrap;html=1;fillColor=#fff2cc;strokeColor=#d6b656;" vertex="1" parent="1">
          <mxGeometry x="365" y="640" width="120" height="60" as="geometry" />
        </mxCell>
        <mxCell id="xIY02DsBYMmazBNHOMGh-11" style="edgeStyle=orthogonalEdgeStyle;rounded=0;orthogonalLoop=1;jettySize=auto;html=1;entryX=1;entryY=0.25;entryDx=0;entryDy=0;" edge="1" parent="1" source="xIY02DsBYMmazBNHOMGh-5" target="xIY02DsBYMmazBNHOMGh-1">
          <mxGeometry relative="1" as="geometry" />
        </mxCell>
        <mxCell id="xIY02DsBYMmazBNHOMGh-5" value="A9G - GPS/GPRS" style="rounded=1;whiteSpace=wrap;html=1;fillColor=#fff2cc;strokeColor=#d6b656;" vertex="1" parent="1">
          <mxGeometry x="640" y="280" width="120" height="60" as="geometry" />
        </mxCell>
        <mxCell id="xIY02DsBYMmazBNHOMGh-6" value="LCD screen" style="rounded=1;whiteSpace=wrap;html=1;fillColor=#fff2cc;strokeColor=#d6b656;" vertex="1" parent="1">
          <mxGeometry x="640" y="370" width="120" height="60" as="geometry" />
        </mxCell>
        <mxCell id="xIY02DsBYMmazBNHOMGh-15" value="" style="edgeStyle=orthogonalEdgeStyle;rounded=0;orthogonalLoop=1;jettySize=auto;html=1;" edge="1" parent="1" source="xIY02DsBYMmazBNHOMGh-12" target="xIY02DsBYMmazBNHOMGh-1">
          <mxGeometry relative="1" as="geometry" />
        </mxCell>
        <mxCell id="xIY02DsBYMmazBNHOMGh-12" value="reverse proctection" style="rounded=1;whiteSpace=wrap;html=1;" vertex="1" parent="1">
          <mxGeometry x="365" y="530" width="120" height="60" as="geometry" />
        </mxCell>
        <mxCell id="xIY02DsBYMmazBNHOMGh-13" value="ON indication LED" style="rounded=1;whiteSpace=wrap;html=1;" vertex="1" parent="1">
          <mxGeometry x="573" y="470" width="120" height="60" as="geometry" />
        </mxCell>
        <mxCell id="xIY02DsBYMmazBNHOMGh-16" value="" style="endArrow=classic;html=1;rounded=0;" edge="1" parent="1">
          <mxGeometry width="50" height="50" relative="1" as="geometry">
            <mxPoint x="424" y="499.9" as="sourcePoint" />
            <mxPoint x="574" y="499.9" as="targetPoint" />
          </mxGeometry>
        </mxCell>
      </root>
    </mxGraphModel>
  </diagram>
</mxfile>
